<svg version="1.1" id="Layer_1" xmlns:x="ns_extend;" xmlns:i="ns_ai;" xmlns:graph="ns_graphs;" xmlns="http://www.w3.org/2000/svg" xmlns:xlink="http://www.w3.org/1999/xlink" x="0px" y="0px" viewBox="0 0 190.5 54.7" style="enable-background:new 0 0 190.5 54.7;" xml:space="preserve">
 <style type="text/css">
  .st0{fill:#333333;}
	.st1{fill:#FF0026;}
 </style>
 <metadata>
  <sfw xmlns="ns_sfw;">
   <slices>
   </slices>
   <sliceSourceBounds bottomLeftOrigin="true" height="54.7" width="190.5" x="77.4" y="-243.2">
   </sliceSourceBounds>
  </sfw>
 </metadata>
 <g>
  <path class="st0" d="M146.8,0.6v10.3h13.8c0,0.1,0-10.3,0-10.3s6.8,0,6.8,0v25.7h-6.8V15h-13.8c0,0.1,0,11.3,0,11.3H140
		c0,0,0.1-25.7,0-25.7C140,0.6,146.8,0.6,146.8,0.6z">
  </path>
  <path class="st0" d="M82,0.6c0,0.1,0,4.4,0,4.4H71.6v21.4h-6.8V4.9H54.3V0.6C54.3,0.6,82,0.6,82,0.6">
  </path>
  <path class="st0" d="M108.6,26.3h-7.6l-2.3-5.5H85.9c0,0-2.2,5.5-2.3,5.5H76L88.1,0.6h8.4L108.6,26.3z M92.4,4.9l-4.8,11.7h9.5
		L92.4,4.9">
  </path>
  <rect x="172.9" y="0.6" class="st0" width="6.8" height="25.7">
  </rect>
  <path class="st0" d="M19.1,0.6c0,0,0,10.4,0,10.3h13.8c0,0.1,0-10.3,0-10.3s6.8,0,6.8,0v25.7h-6.8V15H19.1c0,0.1,0,11.3,0,11.3
		h-6.8c0,0,0.1-25.7,0-25.7C12.2,0.6,19.1,0.6,19.1,0.6z">
  </path>
  <rect x="45" y="0.6" class="st0" width="6.8" height="25.7">
  </rect>
  <path class="st0" d="M108.3,19.2c-0.6-1.7-0.9-3.6-0.9-5.5c0-2.7,0.5-5.3,1.7-7.5c1.3-2.3,3.4-4,5.9-4.9c2.3-0.9,4.9-1.4,7.6-1.4
		c3.1,0,6,0.7,8.6,1.8c2.5,1.1,4.3,3.3,4.9,6c0.1,0.5,0.2,1.1,0.2,1.6H129c0-0.7-0.1-1.4-0.4-2c-0.5-1.5-1.7-2.5-3.2-3
		c-0.9-0.3-2-0.4-3-0.4c-1.2,0-2.3,0.2-3.3,0.6c-1.7,0.6-3.1,2-3.7,3.8c-0.6,1.7-0.9,3.5-0.9,5.5c0,1.6,0.2,3.1,0.7,4.5
		c0.5,1.9,2,3.4,3.7,4.1c1.2,0.4,2.4,0.7,3.6,0.7c1.1,0,2.2-0.1,3.1-0.5c1.3-0.4,2.4-1.4,3-2.7c0.4-0.9,0.6-1.7,0.6-2.8h7.2
		c-0.1,0.9-0.1,1.7-0.4,2.5c-0.6,2.5-2.4,4.7-4.8,5.7c-2.7,1.2-5.7,1.8-8.8,1.8c-2.4,0-4.7-0.4-6.9-1.1
		C112.4,24.9,109.4,22.5,108.3,19.2">
  </path>
  <path class="st0" d="M6.1,33.5L0,34.1V35h0.2c2.5,0.3,2.5,0.3,2.5,2v12.7h3.7V33.5H6.1z">
  </path>
  <path class="st0" d="M19,38.4c-2.3,0-3.6,1.5-4.2,2.5v-2.5l-0.2,0.1l-4.9,0.8v0.9h0.2c1.5,0.1,1.9,0.4,1.9,1.8v8h3.1v-5.9
		c0-1.5,1.5-3.6,3.1-3.6c1.5,0,1.5,1.2,1.5,3.2v6.2h3.1v-8C22.4,39.6,21.2,38.4,19,38.4">
  </path>
  <path class="st0" d="M31,42.8c-1.2-0.6-2.3-1.1-2.3-2c0-0.9,1.2-1,1.6-1c1.2,0,2.4,0.7,2.9,1l0.5,0.3v-0.4v-1.9l-0.4-0.1
		c-0.6-0.1-1.6-0.4-2.8-0.4c-2.9,0-4.7,1.2-4.7,3.3c0,1.9,1.8,2.8,3.4,3.5c1.2,0.6,2.4,1.2,2.4,2.1c0,0.9-0.7,1.3-2,1.3
		c-1.5,0-2.6-0.7-3.3-1.2L26,47.3v2.4l0.2,0.1c0.7,0.1,1.8,0.4,3.3,0.4c3.1,0,4.9-1.3,4.9-3.4C34.5,44.6,32.7,43.6,31,42.8">
  </path>
  <path class="st0" d="M44.5,38.4c-1.2,0-2.3,0.6-3.3,1.6v-1.6L41,38.5l-4.9,0.8v0.9h0.2c1.5,0.1,1.8,0.4,1.8,1.8v12.7h3.1v-5.8
		c0.6,0.7,1.5,1.3,3.1,1.3c3.2,0,4.9-2.1,4.9-6C49.4,40.4,47.6,38.4,44.5,38.4 M43.6,40.1c2.1,0,2.3,2.3,2.3,4
		c0,2.9-0.7,4.4-2.3,4.4c-2,0-2.4-1.9-2.4-3.4v-0.9C41.2,42.8,41.5,40.1,43.6,40.1">
  </path>
  <path class="st0" d="M51.5,39.1V40h0.2c1.5,0.1,1.8,0.4,1.8,1.8v8h3.1V38.3l-0.2,0.1L51.5,39.1z">
  </path>
  <path class="st0" d="M55.1,37c1.1,0,2-0.7,2-1.7s-0.9-1.7-1.9-1.7s-1.9,0.7-1.9,1.7C53.2,36.2,54,37,55.1,37">
  </path>
  <path class="st0" d="M69.4,40.9v-2.4h-0.2c-0.5-0.1-1-0.1-1.5-0.1c-1.7,0-2.7,1.3-3.1,2.3v-2.3l-0.2,0.1l-4.9,0.8v0.9h0.2
		c1.5,0.1,1.9,0.4,1.9,1.8v8h3.1v-5.7c0-0.9,0.3-3.2,3.2-3.2c0.4,0,0.7,0.1,1.1,0.2l0.5,0.1L69.4,40.9z">
  </path>
  <path class="st0" d="M81.7,43c0-3.1-1.7-4.7-5.1-4.7c-3.9,0-5.7,1.8-5.7,5.5c0,3.9,2.5,6.3,6.7,6.3c1.8,0,3.2-0.4,3.8-0.7l0.1-0.1
		v-1.5l-0.3,0.1c-0.5,0.2-1.4,0.4-2.4,0.4c-3.3,0-4.5-2.8-4.6-5.2h7.5L81.7,43L81.7,43z M76.4,39.6c1.7,0,2.1,1.2,2.1,2.3h-4.4
		C74.2,41.1,74.7,39.6,76.4,39.6">
  </path>
  <path class="st0" d="M109.7,38.4c-2.3,0-3.6,1.4-4.2,2.5v-7.7h-0.2l-4.9,0.6v0.9h0.2c1.5,0.1,1.8,0.4,1.8,1.9v13.3h3.1v-5.7
		c0-2.1,1.5-3.7,2.9-3.7c1.7,0,1.7,1.3,1.7,2.4v7.1h3.1v-7.3C113.2,41.2,113.2,38.4,109.7,38.4">
  </path>
  <path class="st0" d="M127,43c0-3.1-1.7-4.7-5.1-4.7c-3.9,0-5.7,1.8-5.7,5.5c0,3.9,2.5,6.3,6.7,6.3c1.8,0,3.2-0.4,3.8-0.7l0.1-0.1
		v-1.5l-0.3,0.1c-0.5,0.2-1.4,0.4-2.4,0.4c-3.3,0-4.5-2.8-4.6-5.2h7.5V43z M121.7,39.6c1.7,0,2.1,1.2,2.1,2.3h-4.4
		C119.6,41.1,120.1,39.6,121.7,39.6">
  </path>
  <path class="st0" d="M92.4,35.1v3.5h-2V40h2v6.9c0,3,1.9,3.2,4.2,3.2c0.6,0,1.2-0.1,1.8-0.2h0.2v-1.4l-0.3,0.1
		c-0.3,0.1-0.6,0.1-0.9,0.1c-1.8,0-2-0.5-2-2.1V40H99v-1.4h-3.5v-3.5C95.5,35.1,92.4,35.1,92.4,35.1z">
  </path>
  <path class="st0" d="M153,33.8H150V46c-0.7-0.9-8-12.1-8-12.1h-7.1v0.9l0.6,0.1c1.9,0.3,2,0.4,2,2.2v12.9h3.3V37.1
		c0.7,0.9,8.4,12.7,8.4,12.7h4.1v-16H153z">
  </path>
  <path class="st0" d="M167,43.1c0-3.1-1.7-4.7-5.1-4.7c-3.9,0-5.7,1.8-5.7,5.5c0,3.9,2.5,6.3,6.7,6.3c1.8,0,3.2-0.4,3.8-0.7l0.1-0.1
		v-1.5l-0.3,0.1c-0.5,0.2-1.4,0.4-2.4,0.4c-3.3,0-4.5-2.8-4.6-5.2h7.5V43.1z M161.7,39.6c1.7,0,2,1.2,2.1,2.3h-4.4
		C159.6,41.1,160.1,39.6,161.7,39.6">
  </path>
  <path class="st0" d="M183.9,35.1v3.5h-2V40h2v6.9c0,3,1.9,3.2,4.2,3.2c0.6,0,1.2-0.1,1.8-0.2h0.2v-1.4l-0.3,0.1
		c-0.3,0.1-0.6,0.1-0.9,0.1c-1.8,0-2-0.5-2-2.1V40h3.5v-1.4H187v-3.5C187,35.1,183.9,35.1,183.9,35.1z">
  </path>
  <path class="st0" d="M177.7,42.3l3.1-3.6h-3.3l-3,3.5l-2.6-3.5h-4.7v0.9h0.2c1.6,0.1,2,0.4,3,1.7l2,2.5l-3.1,3.6h3.3l1.4-1.6l3.1,4
		h3.6l-5.7-7.6L177.7,42.3L177.7,42.3z">
  </path>
  <polygon class="st1" points="183.9,35.1 180.6,35.1 184.6,30.6 187.8,30.6 	">
  </polygon>
 </g>
</svg>